HIERARCHY
ROOT Hips
{
	OFFSET 0.00000 0.00000 0.00000
	CHANNELS 6 Xposition Yposition Zposition Zrotation Yrotation Xrotation 
	JOINT LHipJoint
	{
		OFFSET 0 0 0
		CHANNELS 3 Zrotation Yrotation Xrotation
		JOINT LeftHip
		{
			OFFSET 3.13874 -1.57224 1.49786
			CHANNELS 3 Zrotation Yrotation Xrotation
			JOINT LeftKnee
			{
				OFFSET 2.10955 -5.79594 0.00000
				CHANNELS 3 Zrotation Yrotation Xrotation
				JOINT LeftAnkle
				{
					OFFSET 2.41843 -6.64458 0.00000
					CHANNELS 3 Zrotation Yrotation Xrotation
					JOINT LeftToe
					{
						OFFSET 0.04713 -0.12948 1.66229
						CHANNELS 3 Zrotation Yrotation Xrotation
						End Site
						{
							OFFSET 0.00000 -0.00000 0.85167
						}
					}
				}
			}
		}
	}
	JOINT RHipJoint
	{
		OFFSET 0 0 0
		CHANNELS 3 Zrotation Yrotation Xrotation
		JOINT RightHip
		{
			OFFSET -3.13988 -1.57224 1.49786
			CHANNELS 3 Zrotation Yrotation Xrotation
			JOINT RightKnee
			{
				OFFSET -2.15006 -5.90725 0.00000
				CHANNELS 3 Zrotation Yrotation Xrotation
				JOINT RightAnkle
				{
					OFFSET -2.34496 -6.44273 0.00000
					CHANNELS 3 Zrotation Yrotation Xrotation
					JOINT RightToe
					{
						OFFSET -0.08699 -0.23900 1.55223
						CHANNELS 3 Zrotation Yrotation Xrotation
						End Site
						{
							OFFSET -0.00000 -0.00000 0.80281
						}
					}
				}
			}
		}
	}
	JOINT lowerback
	{
		OFFSET 0 0 0
		CHANNELS 3 Zrotation Yrotation Xrotation
		JOINT Chest
		{
			OFFSET 0.01292 1.96517 -0.16495
			CHANNELS 3 Zrotation Yrotation Xrotation
			JOINT Chest2
			{
				OFFSET 0.02122 1.88666 0.19706
				CHANNELS 3 Zrotation Yrotation Xrotation
				JOINT lowerneck
				{
					OFFSET 0 0 0
					CHANNELS 3 Zrotation Yrotation Xrotation
					JOINT Neck
					{
						OFFSET -0.01683 1.81591 0.07903
						CHANNELS 3 Zrotation Yrotation Xrotation
						JOINT Head
						{
							OFFSET 0.00815 1.74013 -0.47700
							CHANNELS 3 Zrotation Yrotation Xrotation
							End Site
							{
								OFFSET -0.00204 1.83225 -0.16933
							}
						}
					}
				}
				JOINT LeftCollar
				{
					OFFSET 0 0 0
					CHANNELS 3 Zrotation Yrotation Xrotation
					JOINT LeftShoulder
					{
						OFFSET 3.38482 1.41533 0.19802
CHANNELS 3 Zrotation Xrotation Yrotation
						JOINT LeftElbow
						{
OFFSET 0 -4.327120 0.000000
CHANNELS 3 Zrotation Xrotation Yrotation
							JOINT LeftWrist
							{
OFFSET 0 -3.285870 -0.000000
CHANNELS 3 Zrotation Xrotation Yrotation
								JOINT lhand
								{
									OFFSET 0 0 0
CHANNELS 3 Zrotation Xrotation Yrotation
									JOINT LFingers
									{
OFFSET 0 -0.433160 -0.000000
CHANNELS 3 Zrotation Xrotation Yrotation
										End Site
										{
OFFSET 0 -0.349220 -0.000000
										}
									}
								}
								JOINT LThumb
								{
OFFSET 0 0.000000 0.000000
CHANNELS 3 Zrotation Xrotation Yrotation
									End Site
									{
OFFSET 0 -0.354560 0.354560
									}
								}
							}
						}
					}
				}
				JOINT RightCollar
				{
					OFFSET 0 0 0
					CHANNELS 3 Zrotation Yrotation Xrotation
					JOINT RightShoulder
					{
						OFFSET -3.09725 1.62858 -0.14144
CHANNELS 3 Zrotation Xrotation Yrotation
						JOINT RightElbow
						{
OFFSET 0 -4.291040 0.000000
CHANNELS 3 Zrotation Xrotation Yrotation
							JOINT RightWrist
							{
OFFSET 0 -3.227200 -0.000000
CHANNELS 3 Zrotation Xrotation Yrotation
								JOINT rhand
								{
									OFFSET 0 0 0
CHANNELS 3 Zrotation Xrotation Yrotation
									JOINT RFingers
									{
OFFSET 0 -0.543620 -0.000000
CHANNELS 3 Zrotation Xrotation Yrotation
										End Site
										{
OFFSET 0 -0.438280 -0.000000
										}
									}
								}
								JOINT RThumb
								{
OFFSET 0 0.000000 0.000000
CHANNELS 3 Zrotation Xrotation Yrotation
									End Site
									{
OFFSET 0 -0.444970 0.444970
									}
								}
							}
						}
					}
				}
			}
		}
	}
}
MOTION
Frames: 12
Frame Time: 0.008333333333333333
-4.069384 15.658922 -3.714702 685.139154 72.359472 331.754596 0.000000 0.000000 0.000000 -9.228435 2.922804 -2.487922 7.744405 15.927681 51.636108 -0.742307 15.692859 -10.634212 11.467453 -18.156355 -64.290575 0.000000 0.000000 0.000000 42.742169 6.276212 -5.066985 -0.065086 -1.646322 4.529021 -0.884257 -6.434290 -21.221656 -0.039370 1.281102 -3.522728 1.755072 -1.085904 8.803456 4.191327 -0.091822 -12.221598 3.878881 0.343091 -19.089150 2.920500 -2.639578 -12.811178 5.692480 -5.811390 32.904875 0.943623 -1.070103 13.334054 0.000000 0.000000 0.000000 3.380169 19.746644 -45.569585 17.612999 -27.658770 4.368053 20.920021 23.534665 -30.050378 0.000000 0.000000 0.000000 -7.125000 0.000000 0.000000 -12.238836 61.338723 4.910488 0.000000 0.000000 0.000000 -18.627918 34.052372 39.149384 -15.021498 -24.175844 -3.234837 -14.858908 -8.258912 21.624079 0.000000 0.000000 0.000000 7.125000 0.000000 0.000000 14.111799 51.734369 -2.379681
-3.733989 15.574159 -3.526767 680.640501 71.384393 327.849391 0.000000 0.000000 0.000000 -6.118545 2.868491 -10.691964 9.573524 17.162483 58.052517 -0.203704 13.768772 -16.965860 11.382590 -18.117245 -64.017922 0.000000 0.000000 0.000000 45.100282 5.507771 -3.457653 -0.035888 -1.223360 3.363750 -0.978947 -5.704112 -21.585889 -0.033610 1.183830 -3.254938 3.218800 -0.819033 9.099722 4.625097 0.672564 -12.299245 3.390146 0.548985 -19.465392 1.961862 -2.895762 -11.930926 5.471507 -5.766345 32.241778 1.026300 -1.252786 12.866865 0.000000 0.000000 0.000000 3.297770 18.972448 -42.605951 17.263366 -27.203621 4.206994 25.568460 26.309927 -30.143818 0.000000 0.000000 0.000000 -7.125000 0.000000 0.000000 -6.914758 62.621376 2.967229 0.000000 0.000000 0.000000 -20.321480 32.098343 42.290068 -16.142403 -25.713336 -3.707568 -19.968398 -9.034278 18.323193 0.000000 0.000000 0.000000 7.125000 0.000000 0.000000 8.000958 49.222352 -0.839127
-3.378260 15.521601 -3.356988 679.310267 70.972212 326.596292 0.000000 0.000000 0.000000 -5.164247 1.964147 -18.006080 10.632286 17.750264 61.581467 0.546188 10.342239 -21.307208 11.209737 -18.036227 -63.460731 0.000000 0.000000 0.000000 45.948267 3.864972 -1.716438 -0.013290 -0.741737 2.038477 -1.065549 -4.515117 -21.621314 -0.043802 1.350857 -3.714590 3.463913 -0.434511 9.410925 4.830297 1.297453 -12.125285 3.332617 0.817907 -19.483115 1.105534 -3.089421 -12.436976 4.791571 -5.656419 32.863188 0.928510 -1.367298 13.227164 0.000000 0.000000 0.000000 2.903570 17.855747 -38.848571 16.987383 -26.841122 4.081685 29.710370 28.481138 -30.211893 0.000000 0.000000 0.000000 -7.125000 0.000000 0.000000 -1.865010 63.809377 0.850104 0.000000 0.000000 0.000000 -21.636186 28.698228 44.210818 -16.313710 -25.944139 -3.782122 -25.154143 -7.824564 18.508845 0.000000 0.000000 0.000000 7.125000 0.000000 0.000000 2.984822 50.252910 -0.385963
-3.033169 15.498021 -3.201310 677.485442 70.850909 324.776846 0.000000 0.000000 0.000000 -4.632246 0.103376 -24.798665 10.924506 17.897912 62.536110 1.110556 8.549209 -24.714139 11.034403 -17.951891 -62.893060 0.000000 0.000000 0.000000 46.539531 1.605352 -0.194627 -0.001437 -0.240218 0.659888 -1.120478 -3.068722 -21.319393 -0.048023 1.413940 -3.888410 3.670058 -0.177302 9.870418 5.077135 1.756857 -11.935314 3.388116 1.022889 -19.579523 0.401029 -3.241779 -12.182720 3.898932 -5.381097 32.486872 0.739018 -1.480812 12.982018 0.000000 0.000000 0.000000 2.531373 16.993530 -35.114563 16.922063 -26.754900 4.052155 31.824426 29.450999 -31.057134 0.000000 0.000000 0.000000 -7.125000 0.000000 0.000000 0.473576 65.307190 -0.232828 0.000000 0.000000 0.000000 -22.275348 24.445035 44.262646 -15.297085 -24.558077 -3.348592 -28.664285 -5.226975 18.525349 0.000000 0.000000 0.000000 7.125000 0.000000 0.000000 -0.528840 50.880432 0.076902
-2.677039 15.503893 -3.060997 675.483469 70.995536 323.068093 0.000000 0.000000 0.000000 -4.505521 -2.449847 -31.198531 10.307289 17.578736 60.510090 1.295147 9.708387 -27.001494 11.695646 -18.258893 -65.020847 0.000000 0.000000 0.000000 47.082844 0.750609 1.474277 -0.000764 0.174750 -0.480182 -1.237013 -2.662934 -22.121399 -0.046164 1.386200 -3.812025 4.133922 -0.024019 10.184645 5.150121 2.119952 -12.000063 3.125844 1.135222 -19.899242 -0.529702 -3.358010 -11.610720 3.052368 -5.008577 31.905503 0.629168 -1.575728 12.597950 0.000000 0.000000 0.000000 2.475277 16.904755 -32.213598 17.291162 -27.239954 4.219780 32.621959 28.707891 -32.605459 0.000000 0.000000 0.000000 -7.125000 0.000000 0.000000 0.783127 67.193862 -0.418901 0.000000 0.000000 0.000000 -22.157920 20.481728 42.889857 -13.988047 -22.717229 -2.823634 -29.307822 -2.174029 19.721517 0.000000 0.000000 0.000000 7.125000 0.000000 0.000000 -0.975207 52.324431 0.175742
-2.289996 15.533824 -2.936799 673.927377 71.287375 322.101858 0.000000 0.000000 0.000000 -4.531192 -5.986509 -35.828738 8.637227 16.566388 54.823757 1.424722 8.735212 -27.220448 11.734842 -18.276254 -65.145796 0.000000 0.000000 0.000000 47.530406 0.914868 3.268876 -0.008191 0.583254 -1.602799 -1.259463 -3.706709 -22.828335 -0.150880 2.499591 -6.888649 4.578937 0.163357 10.057008 5.137855 2.488943 -12.138975 2.766703 1.243523 -20.000175 -1.108537 -3.587218 -11.635099 1.591239 -4.746162 31.277487 0.204152 -1.749719 12.305500 0.000000 0.000000 0.000000 2.599569 17.020621 -30.399749 17.462394 -27.463315 4.298419 32.695064 27.230936 -32.083970 0.000000 0.000000 0.000000 -7.125000 0.000000 0.000000 1.158075 66.660294 -0.604719 0.000000 0.000000 0.000000 -21.887168 17.132997 41.472712 -13.272060 -21.684396 -2.552924 -29.610506 -0.012537 20.789039 0.000000 0.000000 0.000000 7.125000 0.000000 0.000000 -1.088679 53.566159 0.229434
-1.869085 15.573768 -2.831068 673.848828 71.751571 322.777761 0.000000 0.000000 0.000000 -4.539856 -10.725410 -38.253400 6.246457 14.656726 45.951800 1.190219 9.089715 -25.747011 11.943624 -18.366625 -65.809874 0.000000 0.000000 0.000000 47.702720 2.619477 5.776015 -0.030621 1.127150 -3.098875 -1.347614 -5.724959 -24.667781 -0.157329 2.555258 -7.043038 4.782275 0.433919 9.311211 4.884423 2.816035 -12.260067 2.266397 1.338511 -19.619729 1.614461 -3.975565 -14.480122 -3.930130 -4.349204 32.048610 -2.404186 -1.982369 12.964931 0.000000 0.000000 0.000000 3.290336 17.282842 -30.110357 17.441888 -27.436655 4.288972 32.558469 26.505444 -31.699187 0.000000 0.000000 0.000000 -7.125000 0.000000 0.000000 1.159422 66.208373 -0.592995 0.000000 0.000000 0.000000 -21.622912 14.591474 42.091272 -13.507154 -22.025673 -2.640509 -29.537970 -0.569059 21.395554 0.000000 0.000000 0.000000 7.125000 0.000000 0.000000 -0.886879 54.221386 0.201002
-1.416124 15.607438 -2.732381 673.941713 72.260455 323.636414 0.000000 0.000000 0.000000 -3.465775 -16.903901 -38.618688 3.753467 11.813291 35.090513 0.617531 11.105969 -22.728320 12.219654 -18.481959 -66.683261 0.000000 0.000000 0.000000 48.149823 5.321247 9.148257 -0.087056 1.899742 -5.228818 -1.462617 -8.727272 -27.486461 -0.146053 2.463045 -6.787159 5.013913 0.701069 8.686516 4.553976 3.149176 -12.453458 1.671565 1.426461 -19.409943 2.580741 -4.562899 -16.057451 -7.892608 -4.315584 31.151748 -4.120126 -2.446973 12.766899 0.000000 0.000000 0.000000 4.118209 17.696755 -30.083321 17.128153 -27.026360 4.145475 32.334572 27.586150 -31.082754 0.000000 0.000000 0.000000 -7.125000 0.000000 0.000000 1.147874 65.482514 -0.568132 0.000000 0.000000 0.000000 -21.920699 13.585472 45.665576 -15.144304 -24.345664 -3.285907 -29.401694 -3.686157 21.418347 0.000000 0.000000 0.000000 7.125000 0.000000 0.000000 -0.736123 54.218315 0.166807
-0.926400 15.615221 -2.651982 674.717199 72.650331 325.083698 0.000000 0.000000 0.000000 -0.916241 -24.552170 -37.839856 1.924681 8.693958 24.851564 0.076673 12.811767 -19.141445 11.888829 -18.343131 -65.635911 0.000000 0.000000 0.000000 48.890180 8.475871 13.129477 -0.164901 2.614796 -7.208145 -1.459527 -12.712601 -30.534842 -0.201730 2.889607 -7.971831 5.526470 1.044864 7.766755 4.105869 3.564850 -12.515970 0.777356 1.505599 -18.787061 3.649793 -5.033046 -16.655678 -12.438892 -4.058962 29.096082 -5.918221 -2.869410 11.911190 0.000000 0.000000 0.000000 4.960270 18.432104 -29.936272 17.287427 -27.235044 4.218033 31.785792 28.856966 -31.590349 0.000000 0.000000 0.000000 -7.125000 0.000000 0.000000 0.157677 65.864488 -0.079241 0.000000 0.000000 0.000000 -22.213032 13.015774 48.993532 -17.506114 -27.517721 -4.319958 -29.127881 -5.072381 20.578704 0.000000 0.000000 0.000000 7.125000 0.000000 0.000000 -0.620776 53.236689 0.124708
-0.411255 15.590093 -2.579221 676.588115 72.740822 327.589663 0.000000 0.000000 0.000000 1.925682 -31.077051 -38.021731 1.151357 6.809833 19.154501 -0.257494 14.774828 -17.913056 11.823187 -18.314867 -65.427078 0.000000 0.000000 0.000000 49.533374 11.019271 16.437640 -0.197663 2.862644 -7.896589 -1.626416 -15.024041 -33.503149 -0.224809 3.052092 -8.423900 6.199404 1.435108 6.991337 3.589380 4.068135 -12.612084 -0.283356 1.601867 -18.282965 5.470699 -5.454525 -18.168111 -18.158781 -3.750181 27.113412 -8.348592 -3.310464 11.279618 0.000000 0.000000 0.000000 5.803706 19.771166 -29.155097 17.654651 -27.712632 4.387506 31.176052 29.309780 -31.515510 0.000000 0.000000 0.000000 -7.125000 0.000000 0.000000 -0.623579 65.607087 0.309959 0.000000 0.000000 0.000000 -22.515413 12.675393 52.460169 -20.278230 -30.972973 -5.675380 -29.417107 -6.105303 18.313424 0.000000 0.000000 0.000000 7.125000 0.000000 0.000000 -1.326466 50.780455 0.189409
0.127471 15.508654 -2.487864 678.428098 71.794230 329.544566 0.000000 0.000000 0.000000 2.275994 -32.177082 -38.212076 1.025277 6.441274 18.070191 -0.282865 14.486494 -17.065420 11.941874 -18.365929 -65.804405 0.000000 0.000000 0.000000 50.818501 12.434900 19.616263 -0.184656 2.767393 -7.631735 -1.887921 -16.152533 -35.922941 -0.276777 3.383429 -9.348172 7.148101 1.921306 6.812499 3.354306 4.821653 -12.553569 -1.227869 1.802483 -17.966738 -7.174036 -5.039932 -12.208955 -1.105718 -4.871472 23.547410 0.252251 -2.904775 9.644289 0.000000 0.000000 0.000000 6.100154 21.496109 -26.764838 17.939090 -28.079067 4.520521 31.233172 28.868464 -30.073532 0.000000 0.000000 0.000000 -7.125000 0.000000 0.000000 0.148351 64.085698 -0.066870 0.000000 0.000000 0.000000 -22.859842 12.083471 56.384417 -22.771693 -33.835827 -7.011825 -28.639585 -7.783877 16.401317 0.000000 0.000000 0.000000 7.125000 0.000000 0.000000 -0.833749 48.518163 0.072702
0.701795 15.400285 -2.409340 680.059579 70.293658 330.953025 0.000000 0.000000 0.000000 1.266509 -31.771538 -36.466869 1.123162 6.731326 18.922037 -0.149957 12.870366 -16.276570 11.175677 -18.019526 -63.350144 0.000000 0.000000 0.000000 51.577069 11.945691 21.663602 -0.122429 2.253805 -6.207687 -2.092447 -15.418173 -36.402068 -0.255882 3.252811 -8.983519 8.438777 2.419467 6.748470 3.249749 5.662796 -12.435680 -2.217637 2.019524 -17.610115 -6.814916 -4.704140 -12.444757 -2.664660 -4.120452 22.477512 -0.242135 -2.682816 9.250073 0.000000 0.000000 0.000000 5.993552 23.668095 -23.429218 18.022650 -28.186109 4.559892 32.804894 28.024713 -29.316268 0.000000 0.000000 0.000000 -7.125000 0.000000 0.000000 2.505638 63.709546 -1.136917 0.000000 0.000000 0.000000 -22.949581 11.343368 60.089396 -24.606723 -35.798126 -8.059178 -28.254113 -8.682088 15.194340 0.000000 0.000000 0.000000 7.125000 0.000000 0.000000 -0.620152 47.114511 0.032413
